<svg id="Capa_1" enable-background="new 0 0 512.004 512.004" height="512" viewBox="0 0 512.004 512.004" width="512" xmlns="http://www.w3.org/2000/svg"><g><g><path d="m440.492 120.443c-6.961 0-366.963 0-368.981 0-19.219 0-34.855 15.636-34.855 34.856v261.447c0 16.999 12.597 32.73 29.36 35.416h379.972c16.763-2.686 29.36-18.417 29.36-35.416 0-8.699 0-253.578 0-261.447 0-19.22-15.637-34.856-34.856-34.856z" fill="#695d67"/><path d="m77.405 416.745v-261.447c0-19.219 15.636-34.856 34.855-34.856-24.661 0-40.333 0-40.75 0-19.219 0-34.855 15.636-34.855 34.856v261.447c0 16.999 12.597 32.73 29.36 35.416h40.75c-16.763-2.686-29.36-18.418-29.36-35.416z" fill="#544e55"/><path d="m498.683 451.161h-485.363c-3.214 0-5.819 2.631-5.819 5.876v20.213c0 14.998 12.152 27.269 27.005 27.269h442.992c14.853 0 27.005-12.271 27.005-27.269v-20.213c-.001-3.245-2.606-5.876-5.82-5.876z" fill="#dfebfa"/><path d="m498.683 451.161h-485.363c-3.214 0-5.819 2.631-5.819 5.876v20.213c0 14.998 12.152 27.269 27.005 27.269h442.992c14.853 0 27.005-12.271 27.005-27.269v-20.213c-.001-3.245-2.606-5.876-5.82-5.876z" fill="#dfebfa"/><path d="m91.469 477.25v-20.213c0-3.245 2.605-5.876 5.819-5.876h-83.968c-3.214 0-5.819 2.631-5.819 5.876v20.213c0 14.998 12.152 27.269 27.005 27.269h83.969c-14.853.001-27.006-12.271-27.006-27.269z" fill="#b1dbfc"/><path d="m183.508 451.161v13.561c0 6.665 5.4 12.118 12.001 12.118h120.984c6.601 0 12.001-5.453 12.001-12.118v-13.561" fill="#b1dbfc"/><path d="m249.008 464.722v-13.561h-65.5v13.561c0 6.665 5.4 12.118 12.001 12.118h65.5c-6.6 0-12.001-5.453-12.001-12.118z" fill="#8bcaff"/><path d="m437.782 151.521c-13.851 0-348.884 0-363.561 0-3.454 0-6.253 2.8-6.253 6.254v256.102c0 3.454 2.8 6.254 6.253 6.254h363.561c3.453 0 6.253-2.8 6.253-6.254 0-12.692 0-245.976 0-256.102 0-3.454-2.8-6.254-6.253-6.254z" fill="#8bcaff"/><path d="m108.718 413.877c0-8.058 0-239.846 0-256.102 0-3.454 2.8-6.254 6.253-6.254-22.675 0-37.872 0-40.75 0-3.454 0-6.253 2.8-6.253 6.254v256.102c0 3.454 2.8 6.254 6.253 6.254h40.75c-3.453 0-6.253-2.8-6.253-6.254z" fill="#5cb3f8"/><path d="m379.365 7.516h-201.633l-58.221 58.221v300.495c0 7.124 5.775 12.899 12.899 12.899h247.183c7.124 0 12.899-5.775 12.899-12.899v-345.589c0-7.25-5.877-13.127-13.127-13.127z" fill="#8479c2"/><path d="m144.011 365.214v-323.977l-24.5 24.5v300.495c0 7.124 5.775 12.899 12.899 12.899h21.182c-5.599-2.149-9.581-7.561-9.581-13.917z" fill="#6e60b8"/><path d="m119.511 65.737h45.094c7.25 0 13.127-5.877 13.127-13.127v-45.094z" fill="#6e60b8"/><path d="m177.732 7.516-58.221 58.221h24.257l33.964-33.964z" fill="#6353b2"/></g><g><path d="m162.264 197.323h12.242c4.143 0 7.5-3.357 7.5-7.5s-3.357-7.5-7.5-7.5h-12.242c-4.143 0-7.5 3.357-7.5 7.5s3.357 7.5 7.5 7.5z"/><path d="m194.909 189.823c0 4.143 3.357 7.5 7.5 7.5h147.33c4.143 0 7.5-3.357 7.5-7.5s-3.357-7.5-7.5-7.5h-147.33c-4.142 0-7.5 3.358-7.5 7.5z"/><path d="m162.264 229.737h12.242c4.143 0 7.5-3.357 7.5-7.5s-3.357-7.5-7.5-7.5h-12.242c-4.143 0-7.5 3.357-7.5 7.5s3.357 7.5 7.5 7.5z"/><path d="m349.739 214.737h-147.33c-4.143 0-7.5 3.357-7.5 7.5s3.357 7.5 7.5 7.5h147.33c4.143 0 7.5-3.357 7.5-7.5s-3.357-7.5-7.5-7.5z"/><path d="m162.264 262.15h12.242c4.143 0 7.5-3.357 7.5-7.5s-3.357-7.5-7.5-7.5h-12.242c-4.143 0-7.5 3.357-7.5 7.5s3.357 7.5 7.5 7.5z"/><path d="m349.739 247.15h-147.33c-4.143 0-7.5 3.357-7.5 7.5s3.357 7.5 7.5 7.5h147.33c4.143 0 7.5-3.357 7.5-7.5s-3.357-7.5-7.5-7.5z"/><path d="m162.264 294.564h12.242c4.143 0 7.5-3.357 7.5-7.5s-3.357-7.5-7.5-7.5h-12.242c-4.143 0-7.5 3.357-7.5 7.5s3.357 7.5 7.5 7.5z"/><path d="m349.739 279.564h-147.33c-4.143 0-7.5 3.357-7.5 7.5s3.357 7.5 7.5 7.5h147.33c4.143 0 7.5-3.357 7.5-7.5s-3.357-7.5-7.5-7.5z"/><path d="m162.264 326.978h12.242c4.143 0 7.5-3.357 7.5-7.5s-3.357-7.5-7.5-7.5h-12.242c-4.143 0-7.5 3.357-7.5 7.5s3.357 7.5 7.5 7.5z"/><path d="m349.739 311.978h-147.33c-4.143 0-7.5 3.357-7.5 7.5s3.357 7.5 7.5 7.5h147.33c4.143 0 7.5-3.357 7.5-7.5s-3.357-7.5-7.5-7.5z"/><path d="m286.427 154.9c2.597 3.224 7.317 3.734 10.546 1.136l31.453-25.334c1.768-1.424 2.795-3.571 2.795-5.841s-1.027-4.417-2.795-5.841l-31.453-25.334c-3.228-2.601-7.949-2.089-10.546 1.136-2.599 3.227-2.09 7.947 1.136 10.546l24.202 19.493-24.202 19.493c-3.226 2.599-3.735 7.32-1.136 10.546z"/><path d="m197.285 130.702 31.452 25.334c3.231 2.601 7.95 2.086 10.546-1.136 2.599-3.227 2.09-7.947-1.136-10.546l-24.201-19.493 24.201-19.493c3.226-2.599 3.734-7.319 1.136-10.546-2.598-3.225-7.318-3.735-10.546-1.136l-31.452 25.334c-1.768 1.424-2.795 3.571-2.795 5.841s1.028 4.417 2.795 5.841z"/><path d="m252.316 157.329c3.928 1.276 8.167-.868 9.449-4.818l16.447-50.668c1.278-3.939-.878-8.17-4.818-9.449-3.941-1.279-8.17.877-9.449 4.818l-16.447 50.668c-1.278 3.939.878 8.17 4.818 9.449z"/><path d="m34.506 512.004h203.996c4.143 0 7.5-3.357 7.5-7.5s-3.357-7.5-7.5-7.5h-203.996c-10.755 0-19.505-8.868-19.505-19.77v-18.589h161.008v6.061c0 10.817 8.748 19.618 19.501 19.618h120.983c10.753 0 19.501-8.801 19.501-19.618v-6.061h161.009v18.589c0 10.901-8.75 19.77-19.506 19.77h-203.995c-4.143 0-7.5 3.357-7.5 7.5s3.357 7.5 7.5 7.5h203.995c19.026 0 34.506-15.598 34.506-34.77v-20.213c0-7.376-5.976-13.376-13.32-13.376h-25.644c6.131-7.405 9.809-16.846 9.809-26.916v-261.447c0-23.354-19.001-42.355-42.355-42.355h-40.5v-92.3c-.001-11.374-9.254-20.627-20.628-20.627h-201.633c-2.073 0-3.979.873-5.304 2.196l-58.222 58.221c-1.315 1.316-2.196 3.225-2.196 5.304v47.206h-40.5c-23.354 0-42.355 19.001-42.355 42.355v261.447c0 10.07 3.677 19.511 9.809 26.916h-25.644c-7.345 0-13.319 6-13.319 13.376v20.213c0 19.172 15.478 34.77 34.505 34.77zm286.488-47.298c0 2.503-2.062 4.618-4.501 4.618h-120.983c-2.439 0-4.501-2.115-4.501-4.618v-6.061h129.985zm-150.762-439.1v26.987c0 3.103-2.524 5.627-5.628 5.627h-26.987c4.733-4.732 27.888-27.886 32.615-32.614zm-43.221 47.615h37.594c11.374 0 20.628-9.253 20.628-20.627v-37.594h194.133c3.103 0 5.627 2.524 5.627 5.627v345.59c0 2.977-2.422 5.398-5.398 5.398h-247.185c-2.978 0-5.399-2.422-5.399-5.398 0-10.89 0-281.386 0-292.996zm-82.856 82.061c0-15.084 12.271-27.355 27.355-27.355h40.5v16.079h-37.788c-7.584 0-13.754 6.17-13.754 13.754v256.102c0 7.584 6.17 13.754 13.754 13.754h363.561c7.583 0 13.753-6.17 13.753-13.754v-107.28c0-4.143-3.357-7.5-7.5-7.5s-7.5 3.357-7.5 7.5v106.034h-361.068v-253.61h36.543v207.211c0 11.248 9.151 20.398 20.399 20.398h247.184c11.248 0 20.398-9.15 20.398-20.398v-207.211h36.543v112.575c0 4.143 3.357 7.5 7.5 7.5s7.5-3.357 7.5-7.5v-113.821c0-7.584-6.17-13.754-13.753-13.754h-37.79v-16.079h40.5c15.084 0 27.355 12.271 27.355 27.355v261.447c0 13.106-9.631 24.578-22.494 26.916h-378.704c-12.863-2.338-22.494-13.81-22.494-26.916z"/></g></g></svg>